# xmcd CD database file
#
# Track frame offsets:
#	150
#	19522
#	36967
#
# Disc length: 749 seconds
#
# Revision: 0
# Processed by: cddbd v1.5.1PL0 Copyright (c) Steve Scherf et al.
# Submitted via: CDex 1.51
#
DISCID=1902eb03
DTITLE=Manish - 恋人と呼べないDistance
DYEAR=1992
DGENRE=JPop
TTITLE0=恋人と呼べないDistance
TTITLE1=ロマン作戦GO! and GO!
TTITLE2=恋人と呼べないDistance(カラオケ)
EXTD=YEAR: 1992
EXTT0=
EXTT1=
EXTT2=
PLAYORDER=
